<?xml version="1.0" encoding="iso-8859-1"?>
<!-- Generator: Adobe Illustrator 19.0.0, SVG Export Plug-In . SVG Version: 6.00 Build 0)  -->
<svg version="1.1" id="Layer_1" xmlns="http://www.w3.org/2000/svg" xmlns:xlink="http://www.w3.org/1999/xlink" x="0px" y="0px"
	 viewBox="0 0 512.001 512.001" style="enable-background:new 0 0 512.001 512.001;" xml:space="preserve">
<g>
	<path style="fill:#BAD8E8;" d="M292.86,510.011c-24.691-21.257-6.646-42.527,5.946-57.885
		c16.951-20.673,32.962-40.201,4.137-71.384c-23.443-25.36-27.154-48.246-26.139-62.978c1.119-16.203,7.89-26.222,8.66-27.311
		c2.614-3.705,7.739-4.59,11.447-1.976c3.69,2.604,4.583,7.698,2.007,11.4c-0.915,1.352-20.009,30.661,16.089,69.713
		c16.979,18.37,23.244,36.119,19.152,54.263c-3.441,15.263-13.646,27.709-22.65,38.689c-16.042,19.566-18.918,25.561-7.931,35.02
		c3.437,2.959,3.824,8.145,0.865,11.584C301.484,512.585,296.296,512.97,292.86,510.011z"/>
	<path style="fill:#BAD8E8;" d="M205.945,512c-1.93,0-3.868-0.676-5.431-2.054c-49.801-43.927-28.331-82.558-4.302-115.319
		c19.613-26.733-2.967-53.184-3.937-54.297c-2.975-3.41-2.641-8.595,0.758-11.581c3.399-2.987,8.563-2.675,11.563,0.714
		c11.309,12.777,26.88,44.868,4.862,74.88c-23.11,31.506-37.645,58.381,1.922,93.28c3.403,3.001,3.728,8.192,0.728,11.594
		C210.486,511.06,208.221,512,205.945,512z"/>
</g>
<g>
	<path style="fill:#9EC6D8;" d="M323.389,293.582c-1.918,5.88-8.239,9.094-14.121,7.179l-31.063-10.123
		c-5.881-1.918-9.095-8.239-7.179-14.121l2.025-6.212c1.916-5.883,8.238-9.096,14.119-7.18l31.064,10.121
		c5.882,1.918,9.095,8.241,7.179,14.121L323.389,293.582z"/>
	<path style="fill:#9EC6D8;" d="M171.415,333.041c1.737,5.331,7.469,8.245,12.801,6.508l28.16-9.177
		c5.333-1.738,8.246-7.471,6.508-12.802l-1.835-5.632c-1.737-5.333-7.469-8.246-12.801-6.51l-28.159,9.177
		c-5.334,1.738-8.246,7.471-6.51,12.802L171.415,333.041z"/>
</g>
<path style="fill:#DD2234;" d="M240.6,237.719l16.715-30.558c-4.94-9.031-14.572-60.917-19.046-69.098
	c-10.405-19.021-37.723-51.506-33.316-71.118c-28.13-0.681-55.648,13.977-70.082,40.367l-6.745,12.332l-12.717-5.989
	c-38.809-18.279-85.083-1.638-103.362,37.17c-18.278,38.807-1.638,85.082,37.17,103.361c6.458,3.041,121.737,57.338,127.705,60.148
	l26.492-8.632l25.163-46.004"/>
<path style="fill:#EF2235;" d="M407.347,230.542c8.963-4.222,44.997-21.194,50.838-23.945c42.81-20.164,61.166-71.21,41.004-114.019
	c-20.165-42.809-71.211-61.166-114.02-41.003l-14.027,6.607l-7.441-13.602c-22.71-41.519-74.769-56.761-116.284-34.053
	c-41.517,22.707-56.76,74.767-34.052,116.283c3.781,6.912,71.266,130.288,74.726,136.615l29.224,9.523l65.348-30.781"/>
<path style="fill:#FC3842;" d="M385.17,51.575l-14.027,6.607c-8.184-14.959-20.361-42.939-57.38-54.346
	c-66.036,78.856-41.201,200.327,53.169,245.742c8.602-4.051,82.638-38.923,91.254-42.98c42.81-20.164,61.166-71.21,41.004-114.019
	C479.024,49.77,427.978,31.413,385.17,51.575z"/>
<path style="fill:#C6122C;" d="M48.819,113.847c-58.696,28.016-58.994,112.363,0.397,140.338
	c6.458,3.041,121.737,57.338,127.705,60.148l26.492-8.632c2.542-4.646,24.713-45.181,27.339-49.983
	C139.36,269.216,57.521,203.067,48.819,113.847z"/>
<g>
</g>
<g>
</g>
<g>
</g>
<g>
</g>
<g>
</g>
<g>
</g>
<g>
</g>
<g>
</g>
<g>
</g>
<g>
</g>
<g>
</g>
<g>
</g>
<g>
</g>
<g>
</g>
<g>
</g>
</svg>
