<?xml version="1.0" encoding="iso-8859-1"?>
<!-- Generator: Adobe Illustrator 19.0.0, SVG Export Plug-In . SVG Version: 6.00 Build 0)  -->
<svg version="1.1" id="Capa_1" xmlns="http://www.w3.org/2000/svg" xmlns:xlink="http://www.w3.org/1999/xlink" x="0px" y="0px"
	 viewBox="0 0 464 464" style="enable-background:new 0 0 464 464;" xml:space="preserve">
<g>
	<path style="fill:#D2875A;" d="M214.572,1c0.02-0.002,0.04-0.005,0.061-0.007C214.613,0.996,214.593,0.998,214.572,1z"/>
	<path style="fill:#D2875A;" d="M226.807,0.098c0.29-0.01,0.578-0.024,0.868-0.033C227.385,0.073,227.097,0.088,226.807,0.098z"/>
	<path style="fill:#D2875A;" d="M229.465,0.032c0.65-0.011,1.3-0.022,1.952-0.025C230.765,0.01,230.115,0.021,229.465,0.032z"/>
	<path style="fill:#D2875A;" d="M348.574,56c-0.62-0.762-1.248-1.518-1.882-2.268c-0.178,0.434-0.384,0.859-0.595,1.282
		C346.954,55.28,347.774,55.623,348.574,56z"/>
	<path style="fill:#D2875A;" d="M440,248h-0.029c0.001-0.192,0.029-0.377,0.029-0.569c-30.928,0-56-25.072-56-56v-35.788
		c0-30.902-9.01-60.085-24.614-84.65c0.088,0.742,0.145,1.493,0.145,2.258c0,7.863-4.758,14.611-11.549,17.536
		c0.022,0.022,0.045,0.042,0.067,0.063c14.664,14.665,21.237,33.638,18.901,49.688c-15.803,2.3-34.432-4.054-48.999-18.247
		c-3.447,4.967-9.182,8.225-15.685,8.225c-8.586,0-15.845-5.67-18.245-13.469c-7.16,3.618-16.12,2.448-22.102-3.534
		c-5.968-5.968-7.145-14.899-3.557-22.051c-1.901-0.598-3.667-1.494-5.26-2.619c-15.712-0.257-29.346-6.462-36.734-15.593
		c5.776-7.139,15.373-12.487,26.791-14.609c-8.043-8.157-12.819-17.881-13.531-26.932c8.892-2.642,19.962-1.566,30.675,3.271
		c0.532-0.706,1.098-1.393,1.741-2.035c5.955-5.955,14.859-7.138,22.003-3.58c2.164-6.913,8.159-12.113,15.495-13.164
		c-18.72-9.572-39.686-15.31-61.999-16.104c-1.998-0.071-3.986-0.097-5.967-0.091c-16.225,0.295-53.716,17.657-61.953,75.895
		c-6.166,2.166-9.623,3.529-9.623,3.529s3.576-1.394,9.672-3.537C168.644,83.417,168,91.409,168,100.085
		c33.394,25.356,113.718,61.299,183.768,67.325c-2.314,51.915-27.543,96.521-63.768,119.53V288v20.912
		c0,3.57,1.195,6.934,3.255,9.654c1.073-1.182,2.786-1.662,4.378-1.055c2.063,0.781,3.102,3.094,2.32,5.156
		c-0.114,0.3-0.246,0.594-0.369,0.891c0.264,0.115,0.526,0.233,0.798,0.334l1.129,0.423c0.659-1.724,2.441-2.851,4.31-2.523
		c2.188,0.32,3.703,2.352,3.383,4.535c-0.04,0.275-0.097,0.546-0.141,0.82l56.446,21.167C407.595,336.253,440,295.914,440,248z"/>
	<path style="fill:#D2875A;" d="M217.772,0.668c0.058-0.005,0.117-0.01,0.176-0.016C217.889,0.658,217.831,0.663,217.772,0.668z"/>
	<path style="fill:#BE6E4B;" d="M156.93,327.151c-0.044-0.274-0.101-0.544-0.141-0.819c-0.32-2.188,1.195-4.219,3.383-4.539
		c1.844-0.328,3.642,0.802,4.308,2.527l1.138-0.427h0h0c0.272-0.102,0.534-0.219,0.798-0.335c-0.123-0.297-0.255-0.59-0.369-0.89
		c-0.781-2.063,0.258-4.375,2.32-5.156c1.581-0.617,3.302-0.133,4.378,1.055c0.617-0.815,1.164-1.682,1.616-2.601
		c1.057-2.15,1.638-4.553,1.638-7.054v-21.903c-32.327-20.482-55.914-58.154-62.313-102.882
		c13.961-13.625,42.586-45.042,54.094-83.325c0.072-0.239,0.148-0.478,0.219-0.717c0-8.677,0.644-16.668,1.672-24.191
		c-6.096,2.143-9.672,3.537-9.672,3.537s3.457-1.363,9.623-3.529c8.238-58.238,45.728-75.6,61.953-75.895
		C231.717,0.005,231.862,0,232,0c-0.195,0-0.388,0.007-0.583,0.007c-0.652,0.002-1.302,0.014-1.952,0.025
		c-0.597,0.01-1.194,0.016-1.79,0.033c-0.29,0.008-0.578,0.023-0.868,0.033c-2.976,0.1-5.929,0.286-8.86,0.555
		c-0.058,0.005-0.117,0.01-0.176,0.016c-1.05,0.098-2.096,0.207-3.139,0.326c-0.02,0.002-0.04,0.004-0.061,0.007
		C138.834,9.647,80,73.947,80,152v39.431c0,30.928-25.072,56-56,56c0,0.192,0.027,0.377,0.029,0.569H24l0,0
		c0,47.914,32.405,88.253,76.492,100.315L156.93,327.151z"/>
	<path style="fill:#FFD7B4;" d="M232,356c-30.69,0-57.296-13.112-65.42-32.045c-0.322-0.022-0.639-0.038-0.962-0.062h0l-1.138,0.427
		c0.104,0.27,0.186,0.552,0.231,0.848C169.297,356.43,198.227,380,232,380c33.781,0,62.703-23.57,67.281-54.828
		c0.044-0.299,0.125-0.583,0.229-0.855l-1.129-0.423c-0.272-0.102-0.534-0.219-0.798-0.334C289.664,342.704,262.904,356,232,356z"/>
	<path style="fill:#FFD7B4;" d="M288,288v-1.06c-0.272,0.173-0.543,0.346-0.815,0.517L288,288z"/>
	<path style="fill:#FFD7B4;" d="M232,388c-37.416,0-69.526-26.103-75.07-60.849l-56.438,21.164l-21.346,8.005
		C60.411,363.346,48,381.255,48,401.264V448c0,8.836,7.163,16,16,16h48v-22.349c0-21.025,19.93-36.337,40.245-30.919L232,432
		l79.755-21.268C332.07,405.314,352,420.626,352,441.651V464h48c8.837,0,16-7.164,16-16v-46.736
		c0-20.009-12.411-37.918-31.146-44.944l-21.346-8.005l-56.446-21.167C301.525,361.897,269.423,388,232,388z"/>
	<path style="fill:#FFD7B4;" d="M176,308.912c0,2.501-0.582,4.904-1.638,7.054C175.418,313.816,176,311.413,176,308.912L176,308.912
		z"/>
	<path style="fill:#FFD7B4;" d="M175.806,324.392C184.462,338.313,206.965,348,232,348c27.688,0,52.281-11.848,58.469-28.168
		c0.185-0.483,0.458-0.904,0.786-1.266c-2.06-2.72-3.255-6.084-3.255-9.654V288C288,288,249.457,326.248,175.806,324.392z"/>
	<path style="fill:#FFB996;" d="M231.945,303.596c-20.205,0-39.24-6.001-55.945-16.586v21.903l0,0c0,2.501-0.582,4.904-1.638,7.054
		c-0.452,0.919-0.999,1.786-1.616,2.601c0.328,0.362,0.602,0.783,0.786,1.266c0.593,1.563,1.357,3.084,2.274,4.56
		C249.457,326.248,288,288,288,288l-0.815-0.543C270.65,297.764,251.866,303.596,231.945,303.596z"/>
	<path style="fill:#FFB996;" d="M166.416,323.558c-0.264,0.116-0.526,0.233-0.798,0.335h0c0.323,0.024,0.64,0.04,0.962,0.062
		C166.524,323.823,166.471,323.69,166.416,323.558z"/>
	<path style="fill:#FFE6D2;" d="M167.781,159.596c0,73.087,34.848,133.31,79.96,142.61c-5.182,0.82-10.428,1.39-15.796,1.39
		c19.921,0,38.704-5.832,55.239-16.139c0.273-0.17,0.544-0.344,0.815-0.517c36.225-23.009,61.454-67.615,63.768-119.53
		c-70.05-6.026-150.373-41.968-183.768-67.325c-0.071,0.24-0.147,0.478-0.219,0.717
		C167.781,112.417,167.781,135.241,167.781,159.596z M272,175.432c0-4.418,3.582-8,8-8s8,3.582,8,8v8c0,4.418-3.582,8-8,8
		s-8-3.582-8-8V175.432z M271.069,231.432c7.274,0,10.68,8.823,5.466,13.896c-11.51,11.198-27.204,18.104-44.535,18.104
		s-33.025-6.906-44.535-18.104c-5.214-5.073-1.809-13.896,5.466-13.896H271.069z M176,175.432c0-4.418,3.582-8,8-8s8,3.582,8,8v8
		c0,4.418-3.582,8-8,8s-8-3.582-8-8V175.432z"/>
	<path style="fill:#FFD7B4;" d="M231.945,303.596c5.368,0,10.615-0.57,15.796-1.39c-45.112-9.301-79.96-69.523-79.96-142.61
		c0-24.354,0-47.178,0-58.793c-11.508,38.282-40.133,69.7-54.094,83.325c6.398,44.728,29.986,82.4,62.313,102.882
		C192.706,297.594,211.74,303.596,231.945,303.596z"/>
	<path style="fill:#6E4141;" d="M184,191.432c4.418,0,8-3.582,8-8v-8c0-4.418-3.582-8-8-8s-8,3.582-8,8v8
		C176,187.85,179.582,191.432,184,191.432z"/>
	<path style="fill:#6E4141;" d="M280,191.432c4.418,0,8-3.582,8-8v-8c0-4.418-3.582-8-8-8s-8,3.582-8,8v8
		C272,187.85,275.582,191.432,280,191.432z"/>
	<path style="fill:#FFFFFF;" d="M187.465,245.327c11.51,11.198,27.204,18.104,44.535,18.104s33.025-6.906,44.535-18.104
		c5.214-5.073,1.809-13.896-5.466-13.896h-78.139C185.656,231.432,182.251,240.254,187.465,245.327z"/>
	<path style="fill:#FFEBE1;" d="M311.755,410.732L232,432l-79.755-21.268C131.93,405.314,112,420.626,112,441.651V464h120h120
		v-22.349C352,420.626,332.07,405.314,311.755,410.732z"/>
	<path style="fill:#FFFFFF;" d="M232,380c-33.773,0-62.703-23.57-67.289-54.832c-0.044-0.296-0.126-0.578-0.231-0.848
		c-0.667-1.725-2.464-2.854-4.308-2.527c-2.188,0.32-3.703,2.352-3.383,4.539c0.04,0.275,0.097,0.545,0.141,0.819
		C162.474,361.897,194.584,388,232,388c37.423,0,69.525-26.103,75.062-60.852c0.044-0.274,0.101-0.545,0.141-0.82
		c0.32-2.184-1.195-4.215-3.383-4.535c-1.869-0.327-3.65,0.8-4.31,2.523c-0.104,0.272-0.186,0.557-0.229,0.855
		C294.703,356.43,265.781,380,232,380z"/>
	<path style="fill:#FFFFFF;" d="M232,348c-25.035,0-47.538-9.688-56.194-23.608c-0.917-1.475-1.682-2.996-2.274-4.56
		c-0.184-0.482-0.458-0.904-0.786-1.266c-1.076-1.188-2.797-1.671-4.378-1.055c-2.063,0.781-3.102,3.094-2.32,5.156
		c0.114,0.3,0.246,0.593,0.369,0.89c0.055,0.132,0.108,0.265,0.165,0.397C174.704,342.888,201.31,356,232,356
		c30.904,0,57.664-13.296,65.584-32.441c0.123-0.297,0.255-0.591,0.369-0.891c0.781-2.063-0.258-4.375-2.32-5.156
		c-1.592-0.607-3.305-0.127-4.378,1.055c-0.328,0.361-0.601,0.783-0.786,1.266C284.281,336.152,259.688,348,232,348z"/>
	<path style="fill:#82C888;" d="M342.571,113.556c-5.974,5.974-14.919,7.148-22.075,3.546c-0.582,1.872-1.452,3.613-2.545,5.189
		c14.567,14.193,33.196,20.547,48.999,18.247c2.336-16.051-4.237-35.024-18.901-49.688c-0.022-0.022-0.045-0.042-0.067-0.063
		c-0.607,0.261-1.228,0.497-1.865,0.695C349.719,98.637,348.545,107.582,342.571,113.556z"/>
	<path style="fill:#82C888;" d="M245,73.251c0-8.593,5.68-15.857,13.489-18.25c-3.203-6.383-2.594-14.172,1.814-20.02
		c-10.714-4.837-21.784-5.913-30.675-3.271c0.712,9.051,5.488,18.775,13.531,26.932c-11.418,2.122-21.015,7.47-26.791,14.609
		c7.388,9.131,21.022,15.336,36.734,15.593C248.206,85.388,245,79.699,245,73.251z"/>
	<path style="fill:#82C888;" d="M320.502,29.419c7.148-3.573,16.066-2.393,22.027,3.568c1.85,1.851,3.239,3.987,4.171,6.267
		c4.705-9.812,6.125-20,4.162-28.475c-10.485,0.182-22.202,5.712-31.619,15.596C319.742,27.347,320.173,28.359,320.502,29.419z"/>
	<path style="fill:#FFD7A5;" d="M258.489,55.001c1.771-0.543,3.651-0.838,5.6-0.838c7.138,0,20.354,3.92,28.15,9.724
		c0.213-0.229,0.433-0.449,0.662-0.662c-5.803-7.796-9.724-21.012-9.724-28.15c0-1.989,0.306-3.906,0.87-5.708
		c-7.144-3.558-16.048-2.375-22.003,3.58c-0.643,0.643-1.209,1.33-1.741,2.035C255.895,40.829,255.286,48.618,258.489,55.001z"/>
	<path style="fill:#FFD7A5;" d="M320.502,29.419c0.553,1.787,0.853,3.686,0.853,5.655c0,7.138-3.921,20.354-9.724,28.15
		c0.228,0.213,0.448,0.434,0.662,0.662c7.796-5.803,21.012-9.723,28.15-9.723c1.969,0,3.868,0.299,5.654,0.853
		c0.211-0.423,0.417-0.848,0.595-1.282c1.897-4.628,1.9-9.849,0.008-14.479c-0.932-2.279-2.32-4.416-4.171-6.267
		C336.568,27.026,327.65,25.846,320.502,29.419z"/>
	<path style="fill:#FFD7A5;" d="M311.631,83.277c5.803,7.796,9.724,21.013,9.724,28.15c0,1.976-0.3,3.882-0.858,5.675
		c7.156,3.602,16.1,2.428,22.075-3.546c5.974-5.974,7.148-14.919,3.546-22.074c-1.793,0.557-3.698,0.857-5.674,0.857
		c-7.138,0-20.354-3.92-28.15-9.724C312.079,82.844,311.859,83.064,311.631,83.277z"/>
	<path style="fill:#FFD7A5;" d="M292.901,83.277c-0.228-0.213-0.448-0.433-0.662-0.662c-7.796,5.803-21.012,9.724-28.15,9.724
		c-1.996,0-3.919-0.309-5.727-0.876c-3.588,7.152-2.411,16.083,3.557,22.051c5.982,5.982,14.942,7.152,22.102,3.534
		c-0.547-1.777-0.844-3.664-0.844-5.62C283.177,104.29,287.098,91.073,292.901,83.277z"/>
	<path style="fill:#FFE6CD;" d="M321.354,111.428c0-7.138-3.921-20.354-9.724-28.15c-2.454,2.293-5.741,3.708-9.365,3.708
		s-6.911-1.415-9.365-3.708c-5.803,7.796-9.724,21.013-9.724,28.15c0,1.957,0.297,3.843,0.844,5.62
		c2.399,7.799,9.659,13.469,18.245,13.469c6.503,0,12.239-3.258,15.685-8.225c1.093-1.576,1.963-3.317,2.545-5.189
		C321.054,115.31,321.354,113.404,321.354,111.428z"/>
	<path style="fill:#FFE6CD;" d="M284.047,29.366c-0.564,1.802-0.87,3.719-0.87,5.708c0,7.138,3.921,20.354,9.724,28.15
		c2.454-2.293,5.741-3.708,9.365-3.708s6.911,1.414,9.365,3.708c5.803-7.796,9.724-21.012,9.724-28.15
		c0-1.969-0.299-3.868-0.853-5.655c-0.328-1.06-0.76-2.072-1.259-3.044c-3.165-6.164-9.571-10.39-16.977-10.39
		c-0.927,0-1.832,0.089-2.724,0.217C292.206,17.253,286.211,22.453,284.047,29.366z"/>
	<path style="fill:#FFE6CD;" d="M292.239,82.616c-2.293-2.454-3.708-5.741-3.708-9.365s1.414-6.911,3.708-9.365
		c-7.796-5.803-21.012-9.724-28.15-9.724c-1.949,0-3.828,0.295-5.6,0.838C250.68,57.394,245,64.658,245,73.251
		c0,6.448,3.206,12.137,8.102,15.593c1.593,1.125,3.358,2.021,5.26,2.619c1.808,0.568,3.731,0.876,5.727,0.876
		C271.227,92.339,284.443,88.419,292.239,82.616z"/>
	<path style="fill:#FFE6CD;" d="M340.443,54.163c-7.138,0-20.354,3.92-28.15,9.723c2.293,2.455,3.708,5.741,3.708,9.365
		s-1.414,6.911-3.708,9.365c7.796,5.803,21.012,9.724,28.15,9.724c1.976,0,3.882-0.3,5.674-0.857
		c0.638-0.198,1.258-0.434,1.865-0.695c6.791-2.924,11.549-9.672,11.549-17.536c0-0.765-0.058-1.516-0.145-2.258
		C358.601,64.34,354.395,58.75,348.574,56c-0.8-0.378-1.621-0.72-2.477-0.985C344.31,54.461,342.412,54.163,340.443,54.163z"/>
	<path style="fill:#FFC882;" d="M292.239,63.886c-2.293,2.454-3.708,5.741-3.708,9.365s1.414,6.911,3.708,9.365
		c0.213,0.229,0.433,0.449,0.662,0.662c2.454,2.293,5.741,3.708,9.365,3.708s6.911-1.415,9.365-3.708
		c0.228-0.213,0.448-0.433,0.662-0.662c2.293-2.454,3.708-5.741,3.708-9.365s-1.414-6.911-3.708-9.365
		c-0.213-0.228-0.433-0.448-0.662-0.662c-2.454-2.293-5.741-3.708-9.365-3.708s-6.911,1.414-9.365,3.708
		C292.673,63.438,292.452,63.658,292.239,63.886z"/>
</g>
<g>
</g>
<g>
</g>
<g>
</g>
<g>
</g>
<g>
</g>
<g>
</g>
<g>
</g>
<g>
</g>
<g>
</g>
<g>
</g>
<g>
</g>
<g>
</g>
<g>
</g>
<g>
</g>
<g>
</g>
</svg>
