<?xml version="1.0" encoding="iso-8859-1"?>
<!-- Generator: Adobe Illustrator 19.0.0, SVG Export Plug-In . SVG Version: 6.00 Build 0)  -->
<svg version="1.1" id="Capa_1" xmlns="http://www.w3.org/2000/svg" xmlns:xlink="http://www.w3.org/1999/xlink" x="0px" y="0px"
	 viewBox="0 0 512 512" style="enable-background:new 0 0 512 512;" xml:space="preserve">
<path style="fill:#FFE477;" d="M113.879,458.453l-33.376-8.943l21.709-81.018c2.111-7.879-2.564-15.977-10.443-18.088
	c-7.883-2.106-15.978,2.564-18.088,10.444l-21.71,81.018l-33.376-8.943c-7.881-2.107-15.977,2.564-18.088,10.443
	c-2.111,7.88,2.564,15.978,10.443,18.089l47.635,12.764c0.003,0.001,0.005,0.002,0.008,0.002c0.004,0.001,0.008,0.002,0.012,0.003
	l47.63,12.763c1.281,0.343,2.566,0.507,3.832,0.507c6.521,0,12.489-4.352,14.256-10.95
	C126.433,468.664,121.758,460.565,113.879,458.453z"/>
<path style="fill:#FFEB99;" d="M91.769,350.404c-7.883-2.106-15.977,2.565-18.088,10.444l-21.709,81.017l-33.376-8.943
	c-7.881-2.107-15.977,2.564-18.088,10.444c-2.111,7.88,2.565,15.978,10.443,18.089l47.635,12.764
	c0.003,0.001,0.005,0.002,0.007,0.002L91.769,350.404z"/>
<path style="fill:#FFB655;" d="M233.816,127.418c-1.958-3.392-5.184-5.867-8.968-6.881L91.451,84.793
	c-7.882-2.112-15.978,2.564-18.088,10.444l-48.509,181.04c-5.795,21.626-2.821,44.215,8.373,63.605
	c11.195,19.39,29.271,33.259,50.897,39.055c7.24,1.94,14.512,2.865,21.675,2.865c37.005,0,70.962-24.732,80.985-62.136l48.51-181.04
	C236.307,134.842,235.776,130.81,233.816,127.418z"/>
<path style="fill:#FFC477;" d="M158.15,102.665L91.451,84.793c-7.882-2.111-15.978,2.565-18.088,10.444l-48.509,181.04
	c-5.795,21.626-2.821,44.215,8.373,63.605c11.195,19.39,29.27,33.259,50.897,39.055L158.15,102.665z"/>
<path style="fill:#FFEB99;" d="M398.12,458.453l33.376-8.943l-21.709-81.018c-2.111-7.879,2.564-15.977,10.443-18.088
	c7.883-2.106,15.978,2.564,18.088,10.444l21.709,81.017l33.376-8.943c7.881-2.107,15.977,2.564,18.088,10.443
	c2.111,7.88-2.564,15.978-10.443,18.089l-47.634,12.765c-0.003,0.001-0.005,0.002-0.008,0.002c-0.004,0.001-0.008,0.002-0.012,0.003
	l-47.63,12.763c-1.281,0.343-2.566,0.507-3.832,0.507c-6.521,0-12.489-4.352-14.256-10.95
	C385.566,468.664,390.241,460.565,398.12,458.453z"/>
<path style="fill:#FFE477;" d="M420.231,350.404c7.883-2.106,15.977,2.565,18.088,10.444l21.709,81.017l33.377-8.943
	c7.881-2.107,15.977,2.564,18.088,10.444c2.111,7.88-2.564,15.978-10.443,18.089l-47.635,12.764
	c-0.003,0.001-0.005,0.002-0.007,0.002L420.231,350.404z"/>
<path style="fill:#FFC477;" d="M278.183,127.418c1.958-3.392,5.184-5.867,8.968-6.881l133.398-35.744
	c7.882-2.112,15.978,2.564,18.088,10.444l48.509,181.039c5.795,21.626,2.821,44.215-8.373,63.605
	c-11.195,19.39-29.271,33.259-50.897,39.055c-7.24,1.94-14.512,2.865-21.675,2.865c-37.005,0-70.962-24.732-80.985-62.136
	l-48.51-181.04C275.693,134.842,276.224,130.81,278.183,127.418z"/>
<path style="fill:#FFB655;" d="M353.85,102.665l66.699-17.872c7.882-2.111,15.978,2.565,18.088,10.444l48.509,181.039
	c5.795,21.626,2.821,44.215-8.373,63.605c-11.195,19.39-29.27,33.259-50.897,39.055L353.85,102.665z"/>
<g>
	<path style="fill:#FF3F62;" d="M256,73.774c-8.157,0-14.769-6.613-14.769-14.769V39.276c0-8.157,6.613-14.769,14.769-14.769
		s14.769,6.613,14.769,14.769v19.729C270.769,67.161,264.156,73.774,256,73.774z"/>
	<path style="fill:#FF3F62;" d="M306.718,92.238c-3.351,0-6.719-1.133-9.486-3.456c-6.248-5.242-7.064-14.559-1.821-20.807
		l12.682-15.114c5.243-6.251,14.559-7.064,20.807-1.821c6.248,5.242,7.064,14.559,1.821,20.807l-12.682,15.114
		C315.119,90.443,310.934,92.238,306.718,92.238z"/>
</g>
<g>
	<path style="fill:#FF728B;" d="M205.281,92.238c-4.215,0-8.4-1.794-11.322-5.276l-12.682-15.114
		c-5.243-6.248-4.428-15.565,1.821-20.807c6.248-5.243,15.564-4.429,20.807,1.821l12.682,15.114
		c5.243,6.248,4.428,15.565-1.821,20.807C212,91.103,208.631,92.238,205.281,92.238z"/>
	<path style="fill:#FF728B;" d="M241.231,39.276v19.729c0,8.157,6.613,14.769,14.769,14.769V24.507
		C247.843,24.507,241.231,31.119,241.231,39.276z"/>
</g>
<g>
</g>
<g>
</g>
<g>
</g>
<g>
</g>
<g>
</g>
<g>
</g>
<g>
</g>
<g>
</g>
<g>
</g>
<g>
</g>
<g>
</g>
<g>
</g>
<g>
</g>
<g>
</g>
<g>
</g>
</svg>
